<?xml version="1.0" encoding="UTF-8"?><svg xmlns="http://www.w3.org/2000/svg" viewBox="0 0 487.87 150.36"><defs><style>.d{fill:none;}.e{fill:#ffa310;stroke:#ffa310;}.e,.f{stroke-miterlimit:10;}.f{fill:#262626;stroke:#262626;}</style></defs><g id="a"/><g id="b"><g id="c"><path class="f" d="M41.32,86.88c5.59,.91,7.54,2.6,7.54,5.33s-1.17,4.81-4.68,5.46c-3.64,.78-10.53,1.04-20.54,.65-2.21,0-5.2-.13-9.1-.26-3.77-.13-6.76-.39-8.84-.78-3.25-.65-5.2-2.34-5.2-6.63,0-3.64,3.51-4.81,5.46-4.81,12.61,.39,24.31,.65,35.36,1.04Zm7.54,39.52c0,6.63-2.21,12.09-6.76,16.12-4.42,4.03-10.01,5.98-16.9,5.98s-12.61-1.95-17.03-5.98c-4.42-4.03-6.63-9.49-6.63-16.12s2.21-11.96,6.63-15.99c4.42-4.03,10.14-6.11,17.03-6.11s12.48,2.08,16.9,6.11c4.55,4.03,6.76,9.36,6.76,15.99Zm-11.05-60.32c5.59,.91,6.89,2.73,6.89,5.46s-.78,4.68-3.51,5.33c-3.77,.78-9.75,1.04-18.07,.65-4.29,0-9.49,.13-13.78-.52-3.25-.65-5.2-1.43-5.2-5.98,0-3.51,2.34-4.94,5.07-4.94h28.6Zm-5.07,60.32c0-7.8-2.86-12.22-7.54-12.22s-7.54,4.42-7.54,12.22,2.86,12.22,7.54,12.22,7.54-4.29,7.54-12.22Zm70.72-36.01v44.2c.13,1.56-2.21,2.08-7.15,1.69-4.94-.39-7.67-2.08-8.19-5.07l-.26-15.6c-3.38,.65-7.28,.78-11.83,.65l.91,17.94c.39,3.51-1.3,5.59-5.07,5.98-3.77,.39-6.89,.26-9.1-.13-3.51-.65-4.03-3.12-4.03-8.84,0-13,.52-26.13,1.56-39.26,0-4.03,2.86-6.89,6.89-6.89,3.51,0,6.24,.65,7.15,5.85l.91,15.21c5.85,.26,10.01,0,12.61-.65l1.56-16.64c0-4.68,3.64-7.28,7.67-6.37,2.86,.39,4.68,1.56,5.33,3.25s1.04,3.25,1.04,4.68Z"/><path class="f" d="M170.67,120.95c5.2,.91,6.89,2.21,6.89,4.81,0,2.73-1.3,4.55-4.29,5.59-23.01,1.04-41.47,1.17-55.51,.52-3.25-.65-5.33-1.43-5.33-6.11,0-3.64,3.77-4.81,5.2-4.81h4.94c1.3-10.01,2.08-17.03,2.47-21.32,1.43-5.85,2.21-6.76,7.02-6.76,3.12,0,4.81,1.43,5.72,6.5,.39,4.55,.91,11.7,1.56,21.71h10.4c1.43-10.4,2.21-17.81,2.6-22.1,1.43-5.85,2.47-6.76,6.24-6.76,3.12,0,5.59,1.43,6.5,6.24,.39,4.55,.78,11.96,1.43,22.49h4.16Zm-6.76-44.2c5.2,.91,7.41,1.82,7.41,4.81,0,2.73-.65,4.68-3.64,5.59-16.77,1.04-30.81,1.17-42.12,.52-3.25-.65-5.2-1.43-5.2-6.11,0-3.64,3.64-4.81,5.2-4.81h38.35Zm41.47,29.77l1.04,23.01c.39,3.64-1.43,5.59-5.59,5.98-4.16,.39-7.41,.26-9.62-.13-3.51-.65-4.03-3.12-4.03-8.84,0-17.81,.52-34.58,1.56-50.18,0-4.03,3.38-7.41,7.41-7.41,3.51,0,6.76,1.3,7.67,6.37l1.56,31.2Z"/><path class="f" d="M273.1,82.72c5.72,.91,6.5,2.86,6.5,5.46s-1.17,4.68-4.68,5.33c-3.64,.78-10.53,1.04-20.54,.65-2.08,0-6.5-.13-13.13-.26-6.63-.13-10.92-.39-13.13-.78-3.25-.65-5.2-2.34-5.2-6.63,0-3.64,3.51-4.81,5.46-4.81,13.26,.39,28.21,.65,44.72,1.04Zm3.38,41.08c0,7.02-2.6,12.61-7.67,16.9-5.07,4.16-11.31,6.24-18.59,6.24s-13.52-2.08-18.59-6.24c-5.07-4.29-7.67-9.88-7.67-16.9s2.6-12.61,7.67-16.77c5.07-4.29,11.31-6.37,18.59-6.37s13.52,2.08,18.59,6.37c5.07,4.16,7.67,9.75,7.67,16.77Zm-12.61-62.4c5.33,.91,7.93,2.6,7.93,5.2,0,2.99-.78,4.94-3.51,5.59-3.64,.78-9.36,1.04-17.16,.65h-8.58c-3.64,0-6.5-.13-8.71-.52-3.25-.65-5.2-1.43-5.2-5.98,0-3.51,2.34-4.94,5.07-4.94h30.16Zm-4.55,62.4c0-8.32-4.42-12.74-9.1-12.74s-9.1,4.42-9.1,12.74,4.42,12.74,9.1,12.74,9.1-4.42,9.1-12.74Zm62.92-11.57c-4.94,.65-8.58,.91-10.79,.91l.91,20.54c.39,3.51-1.3,5.59-5.33,5.98-4.03,.39-7.15,.26-9.36-.13-3.51-.65-4.03-3.12-4.03-8.84,0-16.77,.52-32.37,1.56-46.54,0-4.03,3.38-7.41,7.54-7.41,3.12,0,6.11,1.3,7.02,6.37l.91,18.59,12.09,.13c2.99,.91,4.16,2.47,3.77,4.68,.26,2.99-1.17,4.94-4.29,5.72Z"/><path class="f" d="M437.58,138.82c-4.55,0-9.49-.13-14.82-.26s-8.32-.39-9.23-.78c-2.08-.65-3.9-1.56-3.9-4.16,0-4.81,1.82-5.72,6.5-6.37,2.86-.39,7.93-.65,15.08-.65h14.56c1.82,0,7.28,.13,16.25,.26s14.69,.39,17.16,.78c1.43,0,3.12,.39,5.07,1.04,2.08,.65,3.12,2.47,3.12,5.33,0,2.34-1.04,3.77-2.99,4.16-1.95,.39-4.03,.65-6.24,.65h-40.56Zm39.26-44.85c4.03,3.12,4.81,6.11,2.34,9.75-3.25,4.16-7.8,3.12-11.83,.13-8.19-6.11-16.38-11.57-20.15-14.3-5.98,8.45-10.79,15.08-14.3,19.89-1.43,2.21-3.38,3.25-5.98,3.38-2.6,0-4.68-.52-6.11-1.69-3.25-1.56-5.85-4.81-4.16-10.14,3.9-4.81,14.3-18.59,31.2-41.08,1.69-2.47,5.46-4.03,8.97-2.47,2.6,.91,4.68,4.16,3.64,7.67-.39,2.47-1.17,4.94-2.6,7.54s-2.6,4.55-3.64,5.72c12.48,8.45,20.02,13.65,22.62,15.6Z"/><path class="f" d="M70.22,70.74c-.37-3.24-.34-6.49-.07-9.73,.12-1.47,.28-2.93,.46-4.39,.04-.32,.08-.65,.12-.97,.21-1.59-.12,.84,.1-.75,.11-.81,.23-1.61,.34-2.42,.18-1.26,.33-2.55,.78-3.74-.32,.86,.19-.27,.25-.38,.12-.24,.52-.53-.03,.01,.18-.17,.34-.37,.52-.54,.18-.17,.37-.34,.56-.5-.37,.27-.42,.32-.16,.13,2.35-1.45,4.8-2.67,7.25-3.94,10.74-5.6,21.27-11.6,31.55-18,5.11-3.18,10.16-6.45,15.15-9.81,2.56-1.73,5.05-3.61,7.66-5.27,.27-.17,1.48-.78,.63-.42,.59-.25,1.2-.34,1.81-.52-.77,.24-.4,.02-.08,.01s.62-.03,.93-.02,.62,.02,.93,.06c-1.11-.14,.1,.08,.27,.12,.24,.07,.48,.15,.72,.23-.96-.3,.13,.06,.31,.16,.46,.25,.88,.54,1.3,.84,0,0,1.17,.9,.53,.4,.24,.19,.48,.37,.72,.56,.66,.51,1.31,1.02,1.96,1.54,2.31,1.83,4.6,3.69,6.87,5.58,4.47,3.73,8.84,7.58,13.11,11.54,9.7,9,18.86,18.59,27.43,28.67,1.53,1.8,4.81,1.69,6.36,0,1.76-1.92,1.63-4.44,0-6.36-7.94-9.34-16.37-18.24-25.28-26.66-4.51-4.26-9.14-8.39-13.87-12.39-2.31-1.95-4.65-3.87-7.01-5.76-1.18-.94-2.37-1.88-3.56-2.81-1.34-1.04-2.66-2.23-4.17-3.02-3.07-1.59-6.46-2.06-9.85-1.39-3.07,.61-5.47,2.48-7.99,4.22-5.21,3.6-10.49,7.09-15.83,10.48-10.76,6.82-21.78,13.21-33.05,19.15-2.83,1.49-5.81,2.81-8.53,4.5-3.29,2.06-5.71,4.94-6.52,8.8s-1.18,7.75-1.56,11.59-.48,7.47-.06,11.19c.27,2.33,1.88,4.62,4.5,4.5,2.21-.1,4.79-2,4.5-4.5h0Z"/><path class="e" d="M360.29,33.24l-2.84-6.99c-.14-.59-.41-1.1-.81-1.53-.32-.49-.74-.88-1.26-1.16-.96-.56-2.39-.8-3.47-.45s-2.14,1.03-2.69,2.07l-.45,1.07c-.21,.8-.21,1.6,0,2.39l2.84,6.99c.14,.59,.41,1.1,.81,1.53,.32,.49,.74,.88,1.26,1.16,.96,.56,2.39,.8,3.47,.45s2.14-1.03,2.69-2.07l.45-1.07c.21-.8,.21-1.6,0-2.39h0Z"/><path class="e" d="M381.24,27.03l-2.74,6.87c-.19,.6-.21,1.2-.08,1.79,.03,.6,.21,1.16,.53,1.67,.55,.93,1.62,1.82,2.69,2.07,1.15,.26,2.44,.21,3.47-.45l.91-.7c.56-.56,.94-1.22,1.16-1.99l2.74-6.87c.19-.6,.21-1.2,.08-1.79-.03-.6-.21-1.16-.53-1.67-.55-.93-1.62-1.82-2.69-2.07-1.15-.26-2.44-.21-3.47,.45l-.91,.7c-.56,.56-.94,1.22-1.16,1.99h0Z"/><path class="d" d="M368.14,56.34c-6.89,0-13.26,4.94-13.26,13.78,0,2.23,.41,4.21,1.12,5.92,3.73-1.13,7.78-3.02,12.14-5.92,4.23-2.82,8.29-4.73,12.12-5.96-2.13-5.07-6.98-7.82-12.12-7.82Z"/><path class="e" d="M345.91,88.58c5.85,4.55,13.26,6.76,22.23,6.76s16.25-2.21,22.1-6.76c5.85-4.55,8.84-10.66,8.84-18.46,0-2.56-.34-4.95-1-7.16-5.11-.96-11.13-.93-17.81,1.21,.72,1.72,1.14,3.71,1.14,5.96,0,8.84-6.37,13.78-13.26,13.78-5.15,0-10.02-2.77-12.14-7.86-7.35,2.21-13.46,1.46-18.26-.38,1.08,5.22,3.79,9.51,8.17,12.92Z"/><path class="f" d="M404.41,108.61c-1.95-.65-3.51-1.04-4.94-1.04-2.47-.39-7.54-.65-15.21-.78-7.67-.13-12.35-.26-14.04-.26h-17.29c-8.97,0-14.82,.26-17.55,.65-4.81,.65-6.5,1.69-6.5,5.98,0,2.47,1.3,4.29,3.9,5.2,.91,.39,4.68,.65,11.44,.65,6.76-.13,12.09,.13,15.86,.52,0,8.45-.13,14.17-.26,17.29s-.26,5.59-.26,7.54c1.04,4.03,5.33,5.33,8.84,5.33,1.56,.39,3.51,.13,5.98-.91,2.47-.91,4.03-2.6,4.42-4.94-.39-5.33-1.04-13.78-2.08-25.35h22.49c3.77,0,8.19-.13,8.19-4.81,0-2.73-1.04-4.42-2.99-5.07Z"/><path class="f" d="M356,76.04c-.71-1.72-1.12-3.69-1.12-5.92,0-8.84,6.37-13.78,13.26-13.78,5.14,0,9.99,2.75,12.12,7.82,6.69-2.14,12.7-2.17,17.81-1.21-1.32-4.41-3.94-8.14-7.84-11.17-5.85-4.55-13.13-6.89-22.1-6.89s-16.38,2.34-22.23,6.89c-5.85,4.55-8.71,10.66-8.71,18.33,0,1.95,.18,3.8,.54,5.54,4.8,1.84,10.92,2.59,18.26,.38Z"/></g></g></svg>